HIERARCHY
ROOT Hips
{
	OFFSET -3.958830 18.904000 13.208200
	CHANNELS 6 Xposition Yposition Zposition Zrotation Yrotation Xrotation 
	JOINT LHipJoint
	{
		OFFSET 0.000000 0.000000 0.000000
		CHANNELS 3 Zrotation Yrotation Xrotation
		JOINT LeftUpLeg
		{
			OFFSET 1.800000 -1.400000 0.085000
			CHANNELS 3 Zrotation Yrotation Xrotation
			JOINT LeftLeg
			{
				OFFSET 2.215000 -6.000000 0.000000
				CHANNELS 3 Zrotation Yrotation Xrotation
				JOINT LeftFoot
				{
					OFFSET 2.500000 -6.900000 0.000000
					CHANNELS 3 Zrotation Yrotation Xrotation
					JOINT LeftToeBase
					{
						OFFSET 0.200000 -0.500000 1.950000
						CHANNELS 3 Zrotation Yrotation Xrotation
						End Site
						{
							OFFSET 0.000000 0.000000 0.000000
						}
					}
				}
			}
		}
	}
	JOINT RHipJoint
	{
		OFFSET 0.000000 0.000000 0.000000
		CHANNELS 3 Zrotation Yrotation Xrotation
		JOINT RightUpLeg
		{
			OFFSET -1.800000 -1.400000 0.085000
			CHANNELS 3 Zrotation Yrotation Xrotation
			JOINT RightLeg
			{
				OFFSET -2.215000 -6.000000 0.000000
				CHANNELS 3 Zrotation Yrotation Xrotation
				JOINT RightFoot
				{
					OFFSET -2.500000 -6.900000 0.000000
					CHANNELS 3 Zrotation Yrotation Xrotation
					JOINT RightToeBase
					{
						OFFSET -0.200000 -0.500000 1.950000
						CHANNELS 3 Zrotation Yrotation Xrotation
						End Site
						{
							OFFSET 0.000000 0.000000 0.000000
						}
					}
				}
			}
		}
	}
	JOINT LowerBack
	{
		OFFSET 0.000000 0.000000 0.000000
		CHANNELS 3 Zrotation Yrotation Xrotation
		JOINT Spine
		{
			OFFSET -0.087000 1.940000 -0.288900
			CHANNELS 3 Zrotation Yrotation Xrotation
			JOINT Spine1
			{
				OFFSET 0.000000 1.950000 0.060000
				CHANNELS 3 Zrotation Yrotation Xrotation
				JOINT Neck
				{
					OFFSET 0.000000 0.000000 0.000000
					CHANNELS 3 Zrotation Yrotation Xrotation
					JOINT Neck1
					{
						OFFSET 0.000000 1.600000 0.340000
						CHANNELS 3 Zrotation Yrotation Xrotation
						JOINT Head
						{
							OFFSET 0.000000 1.667000 -0.240000
							CHANNELS 3 Zrotation Yrotation Xrotation
							End Site
							{
								OFFSET 0.000000 0.000000 0.000000
							}
						}
					}
				}
				JOINT LeftShoulder
				{
					OFFSET 0.000000 0.000000 0.000000
					CHANNELS 3 Zrotation Yrotation Xrotation
					JOINT LeftArm
					{
						OFFSET 2.700000 1.550000 -0.730000
						CHANNELS 3 Zrotation Yrotation Xrotation
						JOINT LeftForeArm
						{
							OFFSET 5.450000 0.000000 0.000000
							CHANNELS 3 Zrotation Yrotation Xrotation
							JOINT LeftHand
							{
								OFFSET 3.450000 0.000000 0.000000
								CHANNELS 3 Zrotation Yrotation Xrotation
								JOINT LeftHandIndex1
								{
									OFFSET 0.750000 0.000000 0.000000
									CHANNELS 3 Zrotation Yrotation Xrotation
									End Site
									{
										OFFSET 0.000000 0.000000 0.000000
									}
								}
							}
						}
					}
				}
				JOINT RightShoulder
				{
					OFFSET 0.000000 0.000000 0.000000
					CHANNELS 3 Zrotation Yrotation Xrotation
					JOINT RightArm
					{
						OFFSET -2.700000 1.550000 -0.730000
						CHANNELS 3 Zrotation Yrotation Xrotation
						JOINT RightForeArm
						{
							OFFSET -5.450000 0.000000 0.000000
							CHANNELS 3 Zrotation Yrotation Xrotation
							JOINT RightHand
							{
								OFFSET -3.450000 0.000000 0.000000
								CHANNELS 3 Zrotation Yrotation Xrotation
								JOINT RightHandIndex1
								{
									OFFSET -0.750000 0.000000 0.000000
									CHANNELS 3 Zrotation Yrotation Xrotation
									End Site
									{
										OFFSET 0.000000 0.000000 0.000000
									}
								}
							}
						}
					}
				}
			}
		}
	}
}
MOTION
Frames: 7
Frame Time: 0.016667
-0.832830 16.621310 -1.029680 -11.784649 -12.062074 1.178410 -14.517895 12.294190 2.263460 30.195246 1.763550 -13.996233 7.190056 4.226605 12.190135 0.226952 4.446923 3.240324 0.902520 0.593280 0.642680 18.919112 -11.366801 3.635990 -1.313858 2.288272 -6.609728 19.193283 -5.453316 5.818022 -0.796595 -4.646549 2.693339 0.159350 0.198620 0.584900 -5.376365 2.043028 -7.654303 30.156139 0.450500 5.634731 -9.583523 1.126422 11.438690 11.639729 -3.999034 -11.580190 -5.535480 -8.168632 30.167249 -2.853040 -11.709280 -7.557980 -26.392411 -12.400790 7.332016 -60.321658 -1.867025 -8.893552 -18.154314 -35.638905 0.918135 -3.417132 3.579380 0.147760 0.112530 0.084680 0.373260 3.010298 21.254886 5.670431 -7.769597 21.590279 -8.876421 -32.236410 -1.415092 -3.346058 2.928463 -2.261350 0.361410 -0.179770 -0.506230 0.120970 
-0.838880 16.615650 -1.033960 -12.226819 -12.442535 1.332821 -14.517773 12.212313 2.311412 30.856137 1.773191 -13.415902 6.987394 4.304140 11.650939 0.234654 4.493980 3.220010 0.944110 0.657760 0.681680 18.927820 -11.359653 3.645387 -1.064288 2.235140 -6.420998 19.423774 -5.440372 5.642994 -0.824914 -4.657367 2.689776 0.198740 0.171360 0.573890 -5.393072 2.178678 -7.673356 30.260177 0.497570 5.642957 -8.915524 0.901641 11.571915 11.895354 -3.946462 -11.448260 -5.215721 -7.728227 30.064455 -3.296010 -10.895470 -8.573500 -26.628014 -11.947772 7.260797 -60.574225 -1.573352 -9.036979 -18.244581 -36.240237 1.036331 -3.401227 3.558635 0.156090 0.101920 0.112230 0.378870 2.867409 21.013564 5.368483 -6.371745 22.234839 -9.445905 -35.590850 0.095045 -4.120366 2.881815 -2.314352 0.364960 -0.165600 -0.537180 0.114100 
-0.838740 16.620510 -1.038610 -12.374484 -12.624771 0.904320 -14.565197 12.341454 2.397419 31.144005 1.771660 -12.623268 7.086442 4.289300 10.937895 0.286527 4.502002 3.214061 0.952230 0.668610 0.697190 18.858075 -11.263690 3.649775 -1.139184 1.936279 -5.556911 19.325671 -5.438667 5.305003 -0.854995 -4.647326 2.704915 0.177510 0.121330 0.571700 -5.212908 1.782317 -7.803070 29.591304 0.325736 6.707171 -7.228347 0.602497 11.421525 12.019225 -4.213057 -12.080376 -5.799211 -7.357806 31.669260 -3.666050 -10.643490 -9.046590 -27.947751 -12.625802 7.545013 -60.498994 -0.896547 -9.605839 -18.482631 -36.537419 1.034867 -3.340551 3.551888 0.187820 0.064730 0.154470 0.376300 4.068130 22.462484 5.954400 -5.528066 20.360878 -11.159802 -41.582028 3.472482 -5.591847 2.835054 -2.359784 0.385990 -0.185570 -0.558630 0.109960 
-0.843010 16.630670 -1.050520 -12.127006 -13.129214 0.462743 -14.597792 12.495898 2.393496 30.907139 1.692621 -11.623521 7.446250 4.201820 10.666819 0.296121 4.476873 3.226312 0.960930 0.662430 0.748330 18.792451 -11.269622 3.659130 -1.313937 1.617442 -4.990260 18.822481 -5.429363 5.166680 -0.873597 -4.574842 2.723680 0.160450 0.071050 0.548690 -5.051704 1.565134 -7.859879 28.208324 0.506422 7.605714 -5.031311 0.453111 11.242659 11.912133 -4.286681 -12.367792 -5.941577 -6.637915 33.591336 -3.556630 -10.137930 -10.273270 -28.624939 -12.759514 7.509060 -61.084746 -0.837447 -9.619067 -17.605060 -35.761900 0.732405 -3.305665 3.481609 0.241640 0.010850 0.195490 0.354090 5.247225 23.238339 6.179156 -2.341553 19.731558 -12.852383 -50.356265 7.855222 -8.377514 2.763805 -2.368220 0.380480 -0.170190 -0.568150 0.084470 
-0.853600 16.635540 -1.059900 -12.590259 -13.984490 0.424067 -14.612001 12.570454 2.437190 31.371568 1.677937 -10.705862 7.916541 4.182640 10.384868 0.305717 4.530243 3.205973 0.988500 0.690830 0.808080 18.762201 -11.243931 3.658554 -0.986248 1.594083 -4.917435 18.881373 -5.597507 5.756291 -0.908788 -4.536172 2.735683 0.162700 0.015140 0.543450 -4.976266 1.421117 -7.921824 28.203380 0.427190 8.160021 -4.042623 0.211638 11.273896 11.961262 -3.915431 -12.696714 -5.275900 -6.234790 35.082079 -4.784850 -9.055560 -11.660590 -29.427039 -13.374545 7.971363 -60.490446 0.040301 -10.129905 -17.961186 -36.521198 0.873699 -3.256878 3.443020 0.296540 -0.022740 0.251520 0.342740 6.068720 23.904003 6.217331 0.594488 19.838738 -13.855759 -56.898638 11.816381 -11.427799 2.689365 -2.340559 0.381680 -0.159860 -0.591850 0.056450 
-0.850790 16.632110 -1.055890 -13.251748 -14.807197 0.553337 -14.604880 12.533464 2.546535 32.286034 1.504740 -9.095052 7.257167 4.385269 9.618168 0.308896 4.687073 3.152252 1.037540 0.730550 0.892830 18.764105 -11.232230 3.610187 -0.707790 1.626216 -5.100739 18.851784 -5.892064 7.001668 -0.952315 -4.500902 2.720301 0.181780 -0.049470 0.535940 -4.986018 1.454293 -7.930835 28.803219 0.340372 8.241558 -3.383729 -0.149692 11.020235 12.083970 -3.622780 -12.409989 -4.556593 -5.855280 36.133754 -5.536370 -8.127920 -14.186370 -30.406263 -12.813109 7.998256 -60.279466 0.967333 -10.394625 -18.422224 -37.190201 1.125655 -3.203913 3.399458 0.371280 -0.075460 0.313060 0.327460 6.882920 23.349967 5.690195 3.379970 21.306876 -14.051404 -62.201489 15.449644 -14.586079 2.611276 -2.274691 0.373190 -0.142180 -0.618170 0.019400 
-0.846200 16.626150 -1.044110 -13.302420 -14.888540 0.446082 -14.585850 12.531227 2.550723 32.342057 1.328413 -8.420712 6.950023 4.443641 9.535323 0.309595 4.728461 3.154082 1.021050 0.713680 0.892870 18.772864 -11.287321 3.574174 -0.887565 1.564285 -5.287736 18.792848 -6.172519 7.943354 -0.951168 -4.525408 2.724053 0.173120 -0.041210 0.522550 -5.020816 1.534102 -7.892303 28.566394 0.126919 7.923530 -2.543057 -0.772273 11.012663 11.573258 -3.271089 -12.362365 -3.758821 -5.265067 36.997051 -5.869580 -7.369120 -14.006970 -30.070582 -12.845960 8.204326 -60.539743 1.448062 -10.370526 -19.575556 -36.733041 1.453402 -3.218004 3.355361 0.384390 -0.071310 0.314740 0.326180 7.696845 22.999107 5.529698 6.758143 22.385629 -14.145097 -67.828969 18.876192 -18.449254 2.537133 -2.216926 0.354290 -0.119780 -0.614220 0.011750 
